{"glyphs":{"0":{"ha":1153,"x_min":68,"x_max":1085,"o":"m 68 780 l 237 949 l 916 949 l 1085 780 l 1085 170 l 916 0 l 237 0 l 68 170 l 68 780 m 949 746 l 305 136 l 882 136 l 949 203 l 949 746 m 203 203 l 848 814 l 271 814 l 203 746 l 203 203 z "},"1":{"ha":475,"x_min":68,"x_max":407,"o":"m 136 949 l 407 949 l 407 0 l 271 0 l 271 814 l 68 814 l 136 949 z "},"2":{"ha":1153,"x_min":68,"x_max":1085,"o":"m 68 0 l 68 373 l 237 543 l 882 543 l 949 610 l 949 746 l 882 814 l 68 814 l 136 949 l 916 949 l 1085 780 l 1085 576 l 916 407 l 271 407 l 203 339 l 203 136 l 1085 136 l 1085 0 l 68 0 z "},"3":{"ha":1153,"x_min":68,"x_max":1085,"o":"m 68 136 l 882 136 l 949 203 l 949 339 l 882 407 l 68 407 l 68 543 l 882 543 l 949 610 l 949 746 l 882 814 l 68 814 l 136 949 l 916 949 l 1085 780 l 1085 576 l 983 475 l 1085 373 l 1085 170 l 916 0 l 136 0 l 68 136 z "},"4":{"ha":1153,"x_min":68,"x_max":1085,"o":"m 949 0 l 949 407 l 237 407 l 68 576 l 68 949 l 203 949 l 203 610 l 271 543 l 949 543 l 949 949 l 1085 949 l 1085 0 l 949 0 z "},"5":{"ha":1153,"x_min":68,"x_max":1085,"o":"m 1085 949 l 1085 814 l 203 814 l 203 543 l 916 543 l 1085 373 l 1085 170 l 916 0 l 136 0 l 68 136 l 882 136 l 949 203 l 949 339 l 882 407 l 68 407 l 68 949 l 1085 949 z "},"6":{"ha":1153,"x_min":68,"x_max":1085,"o":"m 949 339 l 882 407 l 271 407 l 271 543 l 916 543 l 1085 373 l 1085 170 l 916 0 l 237 0 l 68 170 l 68 780 l 237 949 l 1017 949 l 1085 814 l 271 814 l 203 746 l 203 203 l 271 136 l 882 136 l 949 203 l 949 339 z "},"7":{"ha":1153,"x_min":68,"x_max":1085,"o":"m 68 0 l 902 814 l 68 814 l 136 949 l 1085 949 l 1085 814 l 251 0 l 68 0 z "},"8":{"ha":1153,"x_min":68,"x_max":1085,"o":"m 68 170 l 68 373 l 170 475 l 68 576 l 68 780 l 237 949 l 916 949 l 1085 780 l 1085 576 l 983 475 l 1085 373 l 1085 170 l 916 0 l 237 0 l 68 170 m 271 814 l 203 746 l 203 610 l 271 543 l 882 543 l 949 610 l 949 746 l 882 814 l 271 814 m 271 407 l 203 339 l 203 203 l 271 136 l 882 136 l 949 203 l 949 339 l 882 407 l 271 407 z "},"9":{"ha":1153,"x_min":68,"x_max":1085,"o":"m 203 610 l 271 543 l 882 543 l 882 407 l 237 407 l 68 576 l 68 780 l 237 949 l 916 949 l 1085 780 l 1085 170 l 916 0 l 136 0 l 68 136 l 882 136 l 949 203 l 949 746 l 882 814 l 271 814 l 203 746 l 203 610 z "}," ":{"ha":543,"x_min":0,"x_max":0,"o":""},"!":{"ha":271,"x_min":68,"x_max":203,"o":"m 68 0 l 68 136 l 203 136 l 203 0 l 68 0 m 68 271 l 68 949 l 203 949 l 203 271 l 68 271 z "},"\"":{"ha":543,"x_min":68,"x_max":475,"o":"m 203 949 l 203 644 l 68 610 l 68 949 l 203 949 m 475 949 l 475 644 l 339 610 l 339 949 l 475 949 z "},"#":{"ha":1289,"x_min":68,"x_max":1221,"o":"m 543 949 l 484 746 l 959 746 l 1017 949 l 1153 949 l 1095 746 l 1221 746 l 1221 610 l 1056 610 l 978 339 l 1221 339 l 1221 203 l 939 203 l 882 0 l 746 0 l 804 203 l 329 203 l 271 0 l 136 0 l 193 203 l 68 203 l 68 339 l 232 339 l 310 610 l 68 610 l 68 746 l 349 746 l 407 949 l 543 949 m 368 339 l 842 339 l 920 610 l 446 610 l 368 339 z "},"$":{"ha":1153,"x_min":68,"x_max":1085,"o":"m 644 0 l 644 -136 l 509 -136 l 509 0 l 136 0 l 68 136 l 509 136 l 509 407 l 237 407 l 68 576 l 68 780 l 237 949 l 509 949 l 509 1085 l 644 1085 l 644 949 l 1017 949 l 1085 814 l 644 814 l 644 543 l 916 543 l 1085 373 l 1085 170 l 916 0 l 644 0 m 271 543 l 509 543 l 509 814 l 271 814 l 203 746 l 203 610 l 271 543 m 644 407 l 644 136 l 882 136 l 949 203 l 949 339 l 882 407 l 644 407 z "},"%":{"ha":1424,"x_min":68,"x_max":1356,"o":"m 237 949 l 441 949 l 610 780 l 610 576 l 441 407 l 237 407 l 68 576 l 68 780 l 237 949 m 983 543 l 1187 543 l 1356 373 l 1356 170 l 1187 0 l 983 0 l 814 170 l 814 373 l 983 543 m 203 0 l 1051 949 l 1221 949 l 373 0 l 203 0 m 1017 407 l 949 339 l 949 203 l 1017 136 l 1153 136 l 1221 203 l 1221 339 l 1153 407 l 1017 407 m 271 814 l 203 746 l 203 610 l 271 543 l 407 543 l 475 610 l 475 746 l 407 814 l 271 814 z "},"&":{"ha":1153,"x_min":68,"x_max":1085,"o":"m 949 203 l 949 543 l 1085 543 l 1085 170 l 916 0 l 237 0 l 68 170 l 68 373 l 170 475 l 68 576 l 68 780 l 237 949 l 882 949 l 949 814 l 271 814 l 203 746 l 203 610 l 271 543 l 814 543 l 814 407 l 271 407 l 203 339 l 203 203 l 271 136 l 882 136 l 949 203 z "},"'":{"ha":271,"x_min":68,"x_max":203,"o":"m 203 949 l 203 644 l 68 610 l 68 949 l 203 949 z "},"(":{"ha":610,"x_min":68,"x_max":543,"o":"m 203 203 l 271 136 l 543 136 l 475 0 l 237 0 l 68 170 l 68 780 l 237 949 l 475 949 l 543 814 l 271 814 l 203 746 l 203 203 z "},")":{"ha":610,"x_min":68,"x_max":543,"o":"m 407 746 l 339 814 l 68 814 l 136 949 l 373 949 l 543 780 l 543 170 l 373 0 l 136 0 l 68 136 l 339 136 l 407 203 l 407 746 z "},"*":{"ha":585,"x_min":68,"x_max":517,"o":"m 517 804 l 382 712 l 517 621 l 460 536 l 343 616 l 343 475 l 241 475 l 241 616 l 125 536 l 68 621 l 202 712 l 68 804 l 125 888 l 241 808 l 241 949 l 343 949 l 343 808 l 460 888 l 517 804 z "},"+":{"ha":746,"x_min":68,"x_max":678,"o":"m 441 780 l 441 543 l 678 543 l 678 407 l 441 407 l 441 170 l 305 170 l 305 407 l 68 407 l 68 543 l 305 543 l 305 780 l 441 780 z "},",":{"ha":271,"x_min":68,"x_max":203,"o":"m 203 136 l 203 -170 l 68 -203 l 68 136 l 203 136 z "},"-":{"ha":746,"x_min":68,"x_max":678,"o":"m 68 543 l 678 543 l 678 407 l 68 407 l 68 543 z "},".":{"ha":271,"x_min":68,"x_max":203,"o":"m 203 136 l 203 0 l 68 0 l 68 136 l 203 136 z "},"/":{"ha":610,"x_min":68,"x_max":543,"o":"m 543 949 l 217 0 l 68 0 l 393 949 l 543 949 z "},":":{"ha":271,"x_min":68,"x_max":203,"o":"m 203 136 l 203 0 l 68 0 l 68 136 l 203 136 m 203 746 l 203 610 l 68 610 l 68 746 l 203 746 z "},";":{"ha":271,"x_min":68,"x_max":203,"o":"m 203 136 l 203 -170 l 68 -203 l 68 136 l 203 136 m 203 746 l 203 610 l 68 610 l 68 746 l 203 746 z "},"<":{"ha":746,"x_min":68,"x_max":678,"o":"m 678 814 l 678 658 l 224 475 l 678 292 l 678 136 l 68 407 l 68 543 l 678 814 z "},"=":{"ha":746,"x_min":68,"x_max":678,"o":"m 68 746 l 678 746 l 678 610 l 68 610 l 68 746 m 68 339 l 678 339 l 678 203 l 68 203 l 68 339 z "},">":{"ha":746,"x_min":68,"x_max":678,"o":"m 678 543 l 678 407 l 68 136 l 68 292 l 522 475 l 68 658 l 68 814 l 678 543 z "},"?":{"ha":1153,"x_min":68,"x_max":1085,"o":"m 271 271 l 271 373 l 441 543 l 882 543 l 949 610 l 949 746 l 882 814 l 68 814 l 136 949 l 916 949 l 1085 780 l 1085 576 l 916 407 l 475 407 l 407 339 l 407 271 l 271 271 m 407 136 l 407 0 l 271 0 l 271 136 l 407 136 z "},"@":{"ha":1154,"x_min":68,"x_max":1086,"o":"m 1086 136 l 1017 0 l 237 0 l 68 170 l 68 780 l 237 949 l 916 949 l 1085 780 l 1085 407 l 916 237 l 699 237 l 699 597 l 495 597 l 454 556 l 454 387 l 488 353 l 631 353 l 631 237 l 441 237 l 339 339 l 339 610 l 441 712 l 814 712 l 814 359 l 882 359 l 949 427 l 949 746 l 882 814 l 271 814 l 203 746 l 203 203 l 271 136 l 1086 136 z "},"A":{"ha":1153,"x_min":68,"x_max":1085,"o":"m 68 746 l 543 949 l 610 949 l 1085 746 l 1085 0 l 949 0 l 949 339 l 271 339 l 271 475 l 949 475 l 949 665 l 610 800 l 543 800 l 203 665 l 203 0 l 68 0 l 68 746 z "},"B":{"ha":1153,"x_min":68,"x_max":1085,"o":"m 68 0 l 68 949 l 895 949 l 1065 780 l 1065 576 l 973 485 l 1085 373 l 1085 170 l 916 0 l 68 0 m 203 814 l 203 136 l 882 136 l 949 203 l 949 339 l 882 407 l 271 407 l 271 543 l 861 543 l 929 610 l 929 746 l 861 814 l 203 814 z "},"C":{"ha":1153,"x_min":68,"x_max":1085,"o":"m 203 203 l 271 136 l 1085 136 l 1017 0 l 237 0 l 68 170 l 68 780 l 237 949 l 1017 949 l 1085 814 l 271 814 l 203 746 l 203 203 z "},"D":{"ha":1153,"x_min":68,"x_max":1085,"o":"m 68 949 l 916 949 l 1085 780 l 1085 170 l 916 0 l 68 0 l 68 949 m 203 814 l 203 136 l 882 136 l 949 203 l 949 746 l 882 814 l 203 814 z "},"E":{"ha":1153,"x_min":68,"x_max":1085,"o":"m 1085 543 l 1085 407 l 203 407 l 203 203 l 271 136 l 1085 136 l 1017 0 l 237 0 l 68 170 l 68 780 l 237 949 l 1017 949 l 1085 814 l 271 814 l 203 746 l 203 543 l 1085 543 z "},"F":{"ha":1153,"x_min":68,"x_max":1085,"o":"m 1085 543 l 1085 407 l 203 407 l 203 0 l 68 0 l 68 780 l 237 949 l 1017 949 l 1085 814 l 271 814 l 203 746 l 203 543 l 1085 543 z "},"G":{"ha":1153,"x_min":68,"x_max":1085,"o":"m 949 407 l 543 407 l 543 543 l 1085 543 l 1085 170 l 916 0 l 237 0 l 68 170 l 68 780 l 237 949 l 1017 949 l 1085 814 l 271 814 l 203 746 l 203 203 l 271 136 l 882 136 l 949 203 l 949 407 z "},"H":{"ha":1153,"x_min":68,"x_max":1085,"o":"m 68 949 l 203 949 l 203 543 l 949 543 l 949 949 l 1085 949 l 1085 0 l 949 0 l 949 407 l 203 407 l 203 0 l 68 0 l 68 949 z "},"I":{"ha":271,"x_min":68,"x_max":203,"o":"m 203 949 l 203 0 l 68 0 l 68 949 l 203 949 z "},"J":{"ha":1153,"x_min":68,"x_max":1085,"o":"m 949 949 l 1085 949 l 1085 170 l 916 0 l 136 0 l 68 136 l 882 136 l 949 203 l 949 949 z "},"K":{"ha":1153,"x_min":68,"x_max":1085,"o":"m 203 949 l 203 543 l 678 543 l 936 949 l 1085 949 l 827 543 l 916 543 l 1085 373 l 1085 0 l 949 0 l 949 339 l 882 407 l 203 407 l 203 0 l 68 0 l 68 949 l 203 949 z "},"L":{"ha":1153,"x_min":68,"x_max":1085,"o":"m 203 203 l 271 136 l 1085 136 l 1017 0 l 237 0 l 68 170 l 68 949 l 203 949 l 203 203 z "},"M":{"ha":1289,"x_min":68,"x_max":1221,"o":"m 712 0 l 576 0 l 576 814 l 271 814 l 203 746 l 203 0 l 68 0 l 68 780 l 237 949 l 1051 949 l 1221 780 l 1221 0 l 1085 0 l 1085 746 l 1017 814 l 712 814 l 712 0 z "},"N":{"ha":1153,"x_min":68,"x_max":1085,"o":"m 271 814 l 203 746 l 203 0 l 68 0 l 68 780 l 237 949 l 916 949 l 1085 780 l 1085 0 l 949 0 l 949 746 l 882 814 l 271 814 z "},"O":{"ha":1153,"x_min":68,"x_max":1085,"o":"m 68 780 l 237 949 l 916 949 l 1085 780 l 1085 170 l 916 0 l 237 0 l 68 170 l 68 780 m 271 814 l 203 746 l 203 203 l 271 136 l 882 136 l 949 203 l 949 746 l 882 814 l 271 814 z "},"P":{"ha":1153,"x_min":68,"x_max":1085,"o":"m 916 949 l 1085 780 l 1085 509 l 916 339 l 271 339 l 271 475 l 882 475 l 949 543 l 949 746 l 882 814 l 203 814 l 203 0 l 68 0 l 68 949 l 916 949 z "},"Q":{"ha":1153,"x_min":68,"x_max":1085,"o":"m 68 780 l 237 949 l 916 949 l 1085 780 l 1085 170 l 938 22 l 1017 -136 l 882 -136 l 814 0 l 237 0 l 68 170 l 68 780 m 271 814 l 203 746 l 203 203 l 271 136 l 746 136 l 678 271 l 814 271 l 882 136 l 949 203 l 949 746 l 882 814 l 271 814 z "},"R":{"ha":1153,"x_min":68,"x_max":1085,"o":"m 916 949 l 1085 780 l 1085 509 l 983 407 l 1085 305 l 1085 0 l 949 0 l 949 271 l 882 339 l 271 339 l 271 475 l 882 475 l 949 543 l 949 746 l 882 814 l 203 814 l 203 0 l 68 0 l 68 949 l 916 949 z "},"S":{"ha":1153,"x_min":68,"x_max":1085,"o":"m 136 0 l 68 136 l 882 136 l 949 203 l 949 339 l 882 407 l 237 407 l 68 576 l 68 780 l 237 949 l 1017 949 l 1085 814 l 271 814 l 203 746 l 203 610 l 271 543 l 916 543 l 1085 373 l 1085 170 l 916 0 l 136 0 z "},"T":{"ha":1153,"x_min":68,"x_max":1085,"o":"m 1085 949 l 1085 814 l 644 814 l 644 0 l 509 0 l 509 814 l 68 814 l 68 949 l 1085 949 z "},"U":{"ha":1153,"x_min":68,"x_max":1085,"o":"m 882 136 l 949 203 l 949 949 l 1085 949 l 1085 170 l 916 0 l 237 0 l 68 170 l 68 949 l 203 949 l 203 203 l 271 136 l 882 136 z "},"V":{"ha":1153,"x_min":68,"x_max":1085,"o":"m 68 949 l 203 949 l 203 285 l 543 149 l 610 149 l 949 285 l 949 949 l 1085 949 l 1085 203 l 610 0 l 543 0 l 68 203 l 68 949 z "},"W":{"ha":1289,"x_min":68,"x_max":1221,"o":"m 576 949 l 712 949 l 712 136 l 1017 136 l 1085 203 l 1085 949 l 1221 949 l 1221 170 l 1051 0 l 237 0 l 68 170 l 68 949 l 203 949 l 203 203 l 271 136 l 576 136 l 576 949 z "},"X":{"ha":1153,"x_min":68,"x_max":1085,"o":"m 68 0 l 492 475 l 68 949 l 237 949 l 576 570 l 916 949 l 1085 949 l 661 475 l 1085 0 l 916 0 l 576 380 l 237 0 l 68 0 z "},"Y":{"ha":1153,"x_min":68,"x_max":1085,"o":"m 68 949 l 203 949 l 203 624 l 543 488 l 610 488 l 949 624 l 949 949 l 1085 949 l 1085 543 l 644 353 l 644 0 l 509 0 l 509 353 l 68 543 l 68 949 z "},"Z":{"ha":1153,"x_min":68,"x_max":1085,"o":"m 68 0 l 68 136 l 882 814 l 68 814 l 68 949 l 1085 949 l 1085 814 l 271 136 l 1085 136 l 1085 0 l 68 0 z "},"[":{"ha":610,"x_min":68,"x_max":543,"o":"m 203 136 l 543 136 l 475 0 l 68 0 l 68 949 l 475 949 l 543 814 l 203 814 l 203 136 z "},"\\":{"ha":610,"x_min":68,"x_max":543,"o":"m 217 949 l 543 0 l 393 0 l 68 949 l 217 949 z "},"]":{"ha":610,"x_min":68,"x_max":543,"o":"m 407 814 l 68 814 l 136 949 l 543 949 l 543 0 l 136 0 l 68 136 l 407 136 l 407 814 z "},"^":{"ha":746,"x_min":68,"x_max":678,"o":"m 427 949 l 678 543 l 522 543 l 373 814 l 224 543 l 68 543 l 319 949 l 427 949 z "},"_":{"ha":610,"x_min":0,"x_max":610,"o":"m 0 -136 l 610 -136 l 610 -271 l 0 -271 l 0 -136 z "},"`":{"ha":407,"x_min":68,"x_max":339,"o":"m 210 1051 l 339 848 l 197 848 l 68 1051 l 210 1051 z "},"a":{"ha":1017,"x_min":68,"x_max":949,"o":"m 68 170 l 68 271 l 237 441 l 746 441 l 746 305 l 271 305 l 203 237 l 203 203 l 271 136 l 746 136 l 814 203 l 814 543 l 746 610 l 136 610 l 203 746 l 780 746 l 949 576 l 949 170 l 780 0 l 237 0 l 68 170 z "},"b":{"ha":1017,"x_min":68,"x_max":949,"o":"m 814 203 l 814 543 l 746 610 l 271 610 l 271 746 l 780 746 l 949 576 l 949 170 l 780 0 l 237 0 l 68 170 l 68 949 l 203 949 l 203 203 l 271 136 l 746 136 l 814 203 z "},"c":{"ha":1017,"x_min":68,"x_max":949,"o":"m 949 610 l 271 610 l 203 543 l 203 203 l 271 136 l 949 136 l 882 0 l 237 0 l 68 170 l 68 576 l 237 746 l 882 746 l 949 610 z "},"d":{"ha":1017,"x_min":68,"x_max":949,"o":"m 68 170 l 68 576 l 237 746 l 746 746 l 746 610 l 271 610 l 203 543 l 203 203 l 271 136 l 746 136 l 814 203 l 814 949 l 949 949 l 949 170 l 780 0 l 237 0 l 68 170 z "},"e":{"ha":1017,"x_min":68,"x_max":949,"o":"m 68 576 l 237 746 l 780 746 l 949 576 l 949 475 l 780 305 l 271 305 l 271 441 l 746 441 l 814 509 l 814 543 l 746 610 l 271 610 l 203 543 l 203 203 l 271 136 l 882 136 l 814 0 l 237 0 l 68 170 l 68 576 z "},"f":{"ha":814,"x_min":68,"x_max":746,"o":"m 339 543 l 339 0 l 203 0 l 203 543 l 68 543 l 68 678 l 203 678 l 203 780 l 373 949 l 678 949 l 746 814 l 407 814 l 339 746 l 339 678 l 746 678 l 746 543 l 339 543 z "},"g":{"ha":1017,"x_min":68,"x_max":949,"o":"m 203 543 l 203 509 l 271 441 l 746 441 l 746 305 l 237 305 l 68 475 l 68 576 l 237 746 l 780 746 l 949 576 l 949 170 l 780 0 l 203 0 l 136 136 l 746 136 l 814 203 l 814 543 l 746 610 l 271 610 l 203 543 z "},"h":{"ha":1017,"x_min":68,"x_max":949,"o":"m 203 949 l 203 746 l 780 746 l 949 576 l 949 0 l 814 0 l 814 543 l 746 610 l 203 610 l 203 0 l 68 0 l 68 949 l 203 949 z "},"i":{"ha":271,"x_min":68,"x_max":203,"o":"m 203 678 l 203 0 l 68 0 l 68 678 l 203 678 m 203 949 l 203 814 l 68 814 l 68 949 l 203 949 z "},"j":{"ha":814,"x_min":68,"x_max":746,"o":"m 68 136 l 543 136 l 610 203 l 610 678 l 746 678 l 746 170 l 576 0 l 136 0 l 68 136 m 746 949 l 746 814 l 610 814 l 610 949 l 746 949 z "},"k":{"ha":1017,"x_min":68,"x_max":949,"o":"m 203 949 l 203 475 l 610 475 l 800 746 l 949 746 l 760 475 l 780 475 l 949 305 l 949 0 l 814 0 l 814 271 l 746 339 l 203 339 l 203 0 l 68 0 l 68 949 l 203 949 z "},"l":{"ha":271,"x_min":68,"x_max":203,"o":"m 203 949 l 203 0 l 68 0 l 68 949 l 203 949 z "},"m":{"ha":1153,"x_min":68,"x_max":1085,"o":"m 1085 576 l 1085 0 l 949 0 l 949 543 l 882 610 l 644 610 l 644 0 l 509 0 l 509 610 l 271 610 l 203 543 l 203 0 l 68 0 l 68 576 l 237 746 l 916 746 l 1085 576 z "},"n":{"ha":1017,"x_min":68,"x_max":949,"o":"m 203 543 l 203 0 l 68 0 l 68 576 l 237 746 l 780 746 l 949 576 l 949 0 l 814 0 l 814 543 l 746 610 l 271 610 l 203 543 z "},"o":{"ha":1017,"x_min":68,"x_max":949,"o":"m 949 576 l 949 170 l 780 0 l 237 0 l 68 170 l 68 576 l 237 746 l 780 746 l 949 576 m 203 543 l 203 203 l 271 136 l 746 136 l 814 203 l 814 543 l 746 610 l 271 610 l 203 543 z "},"p":{"ha":1017,"x_min":68,"x_max":949,"o":"m 949 576 l 949 373 l 780 203 l 271 203 l 271 339 l 746 339 l 814 407 l 814 543 l 746 610 l 271 610 l 203 543 l 203 0 l 68 0 l 68 576 l 237 746 l 780 746 l 949 576 z "},"q":{"ha":1017,"x_min":68,"x_max":949,"o":"m 203 543 l 203 407 l 271 339 l 746 339 l 746 203 l 237 203 l 68 373 l 68 576 l 237 746 l 780 746 l 949 576 l 949 0 l 814 0 l 814 543 l 746 610 l 271 610 l 203 543 z "},"r":{"ha":814,"x_min":68,"x_max":746,"o":"m 746 610 l 271 610 l 203 543 l 203 0 l 68 0 l 68 576 l 237 746 l 678 746 l 746 610 z "},"s":{"ha":1017,"x_min":68,"x_max":949,"o":"m 780 441 l 949 271 l 949 170 l 780 0 l 136 0 l 68 136 l 746 136 l 814 203 l 814 237 l 746 305 l 237 305 l 68 475 l 68 576 l 237 746 l 882 746 l 949 610 l 271 610 l 203 543 l 203 509 l 271 441 l 780 441 z "},"t":{"ha":814,"x_min":68,"x_max":746,"o":"m 203 746 l 203 882 l 339 949 l 339 746 l 746 746 l 746 610 l 339 610 l 339 203 l 407 136 l 746 136 l 678 0 l 373 0 l 203 170 l 203 610 l 68 610 l 68 746 l 203 746 z "},"u":{"ha":1017,"x_min":68,"x_max":949,"o":"m 68 170 l 68 746 l 203 746 l 203 203 l 271 136 l 746 136 l 814 203 l 814 746 l 949 746 l 949 170 l 780 0 l 237 0 l 68 170 z "},"v":{"ha":1017,"x_min":68,"x_max":949,"o":"m 68 746 l 203 746 l 203 285 l 475 149 l 543 149 l 814 285 l 814 746 l 949 746 l 949 203 l 543 0 l 475 0 l 68 203 l 68 746 z "},"w":{"ha":1153,"x_min":68,"x_max":1085,"o":"m 68 170 l 68 746 l 203 746 l 203 203 l 271 136 l 509 136 l 509 746 l 644 746 l 644 136 l 882 136 l 949 203 l 949 746 l 1085 746 l 1085 170 l 916 0 l 237 0 l 68 170 z "},"x":{"ha":1017,"x_min":68,"x_max":949,"o":"m 68 0 l 424 373 l 68 746 l 237 746 l 509 462 l 780 746 l 949 746 l 593 373 l 949 0 l 780 0 l 509 284 l 237 0 l 68 0 z "},"y":{"ha":1017,"x_min":68,"x_max":949,"o":"m 949 170 l 780 0 l 203 0 l 136 136 l 746 136 l 814 203 l 814 305 l 237 305 l 68 475 l 68 746 l 203 746 l 203 509 l 271 441 l 814 441 l 814 746 l 949 746 l 949 170 z "},"z":{"ha":1017,"x_min":68,"x_max":949,"o":"m 68 0 l 68 136 l 726 610 l 68 610 l 68 746 l 949 746 l 949 610 l 292 136 l 949 136 l 949 0 l 68 0 z "},"{":{"ha":949,"x_min":68,"x_max":882,"o":"m 576 949 l 814 949 l 882 814 l 610 814 l 543 746 l 543 576 l 441 475 l 543 373 l 543 203 l 610 136 l 882 136 l 814 0 l 576 0 l 407 170 l 407 339 l 339 407 l 68 407 l 68 543 l 339 543 l 407 610 l 407 780 l 576 949 z "},"|":{"ha":271,"x_min":68,"x_max":203,"o":"m 203 949 l 203 0 l 68 0 l 68 949 l 203 949 z "},"}":{"ha":949,"x_min":68,"x_max":882,"o":"m 373 0 l 136 0 l 68 136 l 339 136 l 407 203 l 407 373 l 509 475 l 407 576 l 407 746 l 339 814 l 68 814 l 136 949 l 373 949 l 543 780 l 543 610 l 610 543 l 882 543 l 882 407 l 610 407 l 543 339 l 543 170 l 373 0 z "},"~":{"ha":882,"x_min":68,"x_max":814,"o":"m 68 441 l 237 610 l 387 610 l 522 475 l 610 475 l 678 543 l 678 610 l 814 610 l 814 509 l 644 339 l 488 339 l 353 475 l 271 475 l 203 407 l 203 339 l 68 339 l 68 441 z "}," ":{"ha":543,"x_min":0,"x_max":0,"o":""},"¡":{"ha":271,"x_min":68,"x_max":203,"o":"m 203 746 l 203 610 l 68 610 l 68 746 l 203 746 m 203 475 l 203 -203 l 68 -203 l 68 475 l 203 475 z "},"¢":{"ha":1017,"x_min":68,"x_max":949,"o":"m 949 814 l 644 814 l 644 339 l 949 339 l 882 203 l 644 203 l 644 68 l 509 68 l 509 203 l 237 203 l 68 373 l 68 780 l 237 949 l 509 949 l 509 1085 l 644 1085 l 644 949 l 882 949 l 949 814 m 271 339 l 509 339 l 509 814 l 271 814 l 203 746 l 203 407 l 271 339 z "},"£":{"ha":1153,"x_min":68,"x_max":1085,"o":"m 68 136 l 203 136 l 203 407 l 68 407 l 68 543 l 203 543 l 203 780 l 373 949 l 882 949 l 949 814 l 407 814 l 339 746 l 339 543 l 814 543 l 814 407 l 339 407 l 339 136 l 882 136 l 949 203 l 949 271 l 1085 271 l 1085 170 l 916 0 l 68 0 l 68 136 z "},"¥":{"ha":1153,"x_min":68,"x_max":1085,"o":"m 644 237 l 644 170 l 949 170 l 949 68 l 644 68 l 644 0 l 509 0 l 509 68 l 203 68 l 203 170 l 509 170 l 509 237 l 203 237 l 203 339 l 509 339 l 509 353 l 68 543 l 68 949 l 203 949 l 203 624 l 543 488 l 610 488 l 949 624 l 949 949 l 1085 949 l 1085 543 l 644 353 l 644 339 l 949 339 l 949 237 l 644 237 z "},"¦":{"ha":271,"x_min":68,"x_max":203,"o":"m 203 949 l 203 543 l 68 543 l 68 949 l 203 949 m 203 407 l 203 0 l 68 0 l 68 407 l 203 407 z "},"¨":{"ha":543,"x_min":68,"x_max":475,"o":"m 203 983 l 203 848 l 68 848 l 68 983 l 203 983 m 475 983 l 475 848 l 339 848 l 339 983 l 475 983 z "},"©":{"ha":1153,"x_min":68,"x_max":1085,"o":"m 68 780 l 237 949 l 916 949 l 1085 780 l 1085 170 l 916 0 l 237 0 l 68 170 l 68 780 m 271 814 l 203 746 l 203 203 l 271 136 l 882 136 l 949 203 l 949 746 l 882 814 l 271 814 m 814 597 l 495 597 l 454 556 l 454 387 l 488 353 l 814 353 l 746 237 l 441 237 l 339 339 l 339 610 l 441 712 l 746 712 l 814 597 z "},"«":{"ha":746,"x_min":68,"x_max":678,"o":"m 339 814 l 339 644 l 170 475 l 339 305 l 339 136 l 68 407 l 68 543 l 339 814 m 678 814 l 678 644 l 509 475 l 678 305 l 678 136 l 407 407 l 407 543 l 678 814 z "},"¬":{"ha":746,"x_min":68,"x_max":678,"o":"m 68 543 l 678 543 l 678 170 l 543 170 l 543 407 l 68 407 l 68 543 z "},"®":{"ha":1153,"x_min":68,"x_max":1085,"o":"m 68 780 l 237 949 l 916 949 l 1085 780 l 1085 170 l 916 0 l 237 0 l 68 170 l 68 780 m 271 814 l 203 746 l 203 203 l 271 136 l 882 136 l 949 203 l 949 746 l 882 814 l 271 814 m 712 712 l 814 610 l 814 481 l 760 427 l 814 373 l 814 231 l 699 231 l 699 332 l 658 373 l 454 373 l 454 237 l 339 237 l 339 712 l 712 712 m 454 597 l 454 488 l 665 488 l 699 522 l 699 556 l 658 597 l 454 597 z "},"°":{"ha":678,"x_min":68,"x_max":610,"o":"m 610 780 l 610 576 l 441 407 l 237 407 l 68 576 l 68 780 l 237 949 l 441 949 l 610 780 m 203 746 l 203 610 l 271 543 l 407 543 l 475 610 l 475 746 l 407 814 l 271 814 l 203 746 z "},"±":{"ha":746,"x_min":68,"x_max":678,"o":"m 441 814 l 441 576 l 678 576 l 678 441 l 441 441 l 441 203 l 305 203 l 305 441 l 68 441 l 68 576 l 305 576 l 305 814 l 441 814 m 68 136 l 678 136 l 678 0 l 68 0 l 68 136 z "},"´":{"ha":407,"x_min":68,"x_max":339,"o":"m 339 1051 l 210 848 l 68 848 l 197 1051 l 339 1051 z "},"µ":{"ha":1017,"x_min":68,"x_max":949,"o":"m 68 746 l 203 746 l 203 305 l 746 305 l 814 373 l 814 746 l 949 746 l 949 339 l 780 170 l 203 170 l 203 0 l 68 0 l 68 746 z "},"¶":{"ha":1153,"x_min":68,"x_max":1085,"o":"m 1085 949 l 1085 0 l 949 0 l 949 814 l 746 814 l 746 0 l 610 0 l 610 339 l 237 339 l 68 509 l 68 780 l 237 949 l 1085 949 z "},"·":{"ha":271,"x_min":68,"x_max":203,"o":"m 68 407 l 68 543 l 203 543 l 203 407 l 68 407 z "},"¸":{"ha":407,"x_min":68,"x_max":339,"o":"m 68 -305 l 197 -102 l 339 -102 l 210 -305 l 68 -305 z "},"»":{"ha":746,"x_min":68,"x_max":678,"o":"m 678 543 l 678 407 l 407 136 l 407 305 l 576 475 l 407 644 l 407 814 l 678 543 m 339 543 l 339 407 l 68 136 l 68 305 l 237 475 l 68 644 l 68 814 l 339 543 z "},"¿":{"ha":1153,"x_min":68,"x_max":1085,"o":"m 882 475 l 882 373 l 712 203 l 271 203 l 203 136 l 203 0 l 271 -68 l 1085 -68 l 1017 -203 l 237 -203 l 68 -34 l 68 170 l 237 339 l 678 339 l 746 407 l 746 475 l 882 475 m 746 610 l 746 746 l 882 746 l 882 610 l 746 610 z "},"À":{"ha":1153,"x_min":68,"x_max":1085,"o":"m 68 746 l 543 949 l 610 949 l 1085 746 l 1085 0 l 949 0 l 949 339 l 271 339 l 271 475 l 949 475 l 949 665 l 610 800 l 543 800 l 203 665 l 203 0 l 68 0 l 68 746 m 538 1255 l 667 1051 l 524 1051 l 395 1255 l 538 1255 z "},"Á":{"ha":1153,"x_min":68,"x_max":1085,"o":"m 68 746 l 543 949 l 610 949 l 1085 746 l 1085 0 l 949 0 l 949 339 l 271 339 l 271 475 l 949 475 l 949 665 l 610 800 l 543 800 l 203 665 l 203 0 l 68 0 l 68 746 m 758 1255 l 629 1051 l 486 1051 l 615 1255 l 758 1255 z "},"Â":{"ha":1153,"x_min":68,"x_max":1085,"o":"m 68 746 l 543 949 l 610 949 l 1085 746 l 1085 0 l 949 0 l 949 339 l 271 339 l 271 475 l 949 475 l 949 665 l 610 800 l 543 800 l 203 665 l 203 0 l 68 0 l 68 746 m 665 1255 l 814 1051 l 658 1051 l 576 1187 l 495 1051 l 339 1051 l 488 1255 l 665 1255 z "},"Ã":{"ha":1153,"x_min":68,"x_max":1085,"o":"m 68 746 l 543 949 l 610 949 l 1085 746 l 1085 0 l 949 0 l 949 339 l 271 339 l 271 475 l 949 475 l 949 665 l 610 800 l 543 800 l 203 665 l 203 0 l 68 0 l 68 746 m 248 1153 l 383 1289 l 532 1289 l 654 1166 l 736 1166 l 790 1221 l 790 1289 l 905 1289 l 905 1187 l 770 1051 l 622 1051 l 621 1048 l 498 1173 l 417 1173 l 363 1119 l 363 1051 l 248 1051 l 248 1153 z "},"Ä":{"ha":1153,"x_min":68,"x_max":1085,"o":"m 68 746 l 543 949 l 610 949 l 1085 746 l 1085 0 l 949 0 l 949 339 l 271 339 l 271 475 l 949 475 l 949 665 l 610 800 l 543 800 l 203 665 l 203 0 l 68 0 l 68 746 m 509 1187 l 509 1051 l 373 1051 l 373 1187 l 509 1187 m 780 1187 l 780 1051 l 644 1051 l 644 1187 l 780 1187 z "},"Å":{"ha":1153,"x_min":68,"x_max":1085,"o":"m 68 746 l 543 949 l 610 949 l 1085 746 l 1085 0 l 949 0 l 949 339 l 271 339 l 271 475 l 949 475 l 949 665 l 610 800 l 543 800 l 203 665 l 203 0 l 68 0 l 68 746 m 661 1390 l 763 1289 l 763 1153 l 661 1051 l 492 1051 l 390 1153 l 390 1289 l 492 1390 l 661 1390 m 492 1255 l 492 1187 l 526 1153 l 627 1153 l 661 1187 l 661 1255 l 627 1289 l 526 1289 l 492 1255 z "},"Æ":{"ha":2035,"x_min":68,"x_max":1967,"o":"m 68 746 l 543 949 l 610 949 l 966 797 l 1119 949 l 1899 949 l 1967 814 l 1153 814 l 1085 746 l 1085 543 l 1967 543 l 1967 407 l 1085 407 l 1085 203 l 1153 136 l 1967 136 l 1899 0 l 1119 0 l 949 170 l 949 339 l 271 339 l 271 475 l 949 475 l 949 665 l 610 800 l 543 800 l 203 665 l 203 0 l 68 0 l 68 746 z "},"Ç":{"ha":1153,"x_min":68,"x_max":1085,"o":"m 203 203 l 271 136 l 1085 136 l 1017 0 l 237 0 l 68 170 l 68 780 l 237 949 l 1017 949 l 1085 814 l 271 814 l 203 746 l 203 203 m 441 -305 l 570 -102 l 712 -102 l 583 -305 l 441 -305 z "},"È":{"ha":1153,"x_min":68,"x_max":1085,"o":"m 1085 543 l 1085 407 l 203 407 l 203 203 l 271 136 l 1085 136 l 1017 0 l 237 0 l 68 170 l 68 780 l 237 949 l 1017 949 l 1085 814 l 271 814 l 203 746 l 203 543 l 1085 543 m 538 1255 l 667 1051 l 524 1051 l 395 1255 l 538 1255 z "},"É":{"ha":1153,"x_min":68,"x_max":1085,"o":"m 1085 543 l 1085 407 l 203 407 l 203 203 l 271 136 l 1085 136 l 1017 0 l 237 0 l 68 170 l 68 780 l 237 949 l 1017 949 l 1085 814 l 271 814 l 203 746 l 203 543 l 1085 543 m 758 1255 l 629 1051 l 486 1051 l 615 1255 l 758 1255 z "},"Ê":{"ha":1153,"x_min":68,"x_max":1085,"o":"m 1085 543 l 1085 407 l 203 407 l 203 203 l 271 136 l 1085 136 l 1017 0 l 237 0 l 68 170 l 68 780 l 237 949 l 1017 949 l 1085 814 l 271 814 l 203 746 l 203 543 l 1085 543 m 665 1255 l 814 1051 l 658 1051 l 576 1187 l 495 1051 l 339 1051 l 488 1255 l 665 1255 z "},"Ë":{"ha":1153,"x_min":68,"x_max":1085,"o":"m 1085 543 l 1085 407 l 203 407 l 203 203 l 271 136 l 1085 136 l 1017 0 l 237 0 l 68 170 l 68 780 l 237 949 l 1017 949 l 1085 814 l 271 814 l 203 746 l 203 543 l 1085 543 m 509 1187 l 509 1051 l 373 1051 l 373 1187 l 509 1187 m 780 1187 l 780 1051 l 644 1051 l 644 1187 l 780 1187 z "},"Ì":{"ha":407,"x_min":68,"x_max":339,"o":"m 317 949 l 317 0 l 181 0 l 181 949 l 317 949 m 210 1255 l 339 1051 l 197 1051 l 68 1255 l 210 1255 z "},"Í":{"ha":407,"x_min":68,"x_max":339,"o":"m 226 949 l 226 0 l 90 0 l 90 949 l 226 949 m 339 1255 l 210 1051 l 68 1051 l 197 1255 l 339 1255 z "},"Î":{"ha":610,"x_min":68,"x_max":543,"o":"m 373 949 l 373 0 l 237 0 l 237 949 l 373 949 m 393 1255 l 543 1051 l 387 1051 l 305 1187 l 224 1051 l 68 1051 l 217 1255 l 393 1255 z "},"Ï":{"ha":543,"x_min":68,"x_max":475,"o":"m 339 949 l 339 0 l 203 0 l 203 949 l 339 949 m 203 1187 l 203 1051 l 68 1051 l 68 1187 l 203 1187 m 475 1187 l 475 1051 l 339 1051 l 339 1187 l 475 1187 z "},"Ð":{"ha":1289,"x_min":68,"x_max":1221,"o":"m 203 0 l 203 407 l 68 407 l 68 543 l 203 543 l 203 949 l 1051 949 l 1221 780 l 1221 170 l 1051 0 l 203 0 m 1017 136 l 1085 203 l 1085 746 l 1017 814 l 339 814 l 339 543 l 746 543 l 746 407 l 339 407 l 339 136 l 1017 136 z "},"Ñ":{"ha":1153,"x_min":68,"x_max":1085,"o":"m 271 814 l 203 746 l 203 0 l 68 0 l 68 780 l 237 949 l 916 949 l 1085 780 l 1085 0 l 949 0 l 949 746 l 882 814 l 271 814 m 248 1153 l 383 1289 l 532 1289 l 654 1166 l 736 1166 l 790 1221 l 790 1289 l 905 1289 l 905 1187 l 770 1051 l 622 1051 l 621 1048 l 498 1173 l 417 1173 l 363 1119 l 363 1051 l 248 1051 l 248 1153 z "},"Ò":{"ha":1153,"x_min":68,"x_max":1085,"o":"m 68 780 l 237 949 l 916 949 l 1085 780 l 1085 170 l 916 0 l 237 0 l 68 170 l 68 780 m 271 814 l 203 746 l 203 203 l 271 136 l 882 136 l 949 203 l 949 746 l 882 814 l 271 814 m 538 1255 l 667 1051 l 524 1051 l 395 1255 l 538 1255 z "},"Ó":{"ha":1153,"x_min":68,"x_max":1085,"o":"m 68 780 l 237 949 l 916 949 l 1085 780 l 1085 170 l 916 0 l 237 0 l 68 170 l 68 780 m 271 814 l 203 746 l 203 203 l 271 136 l 882 136 l 949 203 l 949 746 l 882 814 l 271 814 m 758 1255 l 629 1051 l 486 1051 l 615 1255 l 758 1255 z "},"Ô":{"ha":1153,"x_min":68,"x_max":1085,"o":"m 68 780 l 237 949 l 916 949 l 1085 780 l 1085 170 l 916 0 l 237 0 l 68 170 l 68 780 m 271 814 l 203 746 l 203 203 l 271 136 l 882 136 l 949 203 l 949 746 l 882 814 l 271 814 m 665 1255 l 814 1051 l 658 1051 l 576 1187 l 495 1051 l 339 1051 l 488 1255 l 665 1255 z "},"Õ":{"ha":1153,"x_min":68,"x_max":1085,"o":"m 68 780 l 237 949 l 916 949 l 1085 780 l 1085 170 l 916 0 l 237 0 l 68 170 l 68 780 m 271 814 l 203 746 l 203 203 l 271 136 l 882 136 l 949 203 l 949 746 l 882 814 l 271 814 m 248 1153 l 383 1289 l 532 1289 l 654 1166 l 736 1166 l 790 1221 l 790 1289 l 905 1289 l 905 1187 l 770 1051 l 622 1051 l 621 1048 l 498 1173 l 417 1173 l 363 1119 l 363 1051 l 248 1051 l 248 1153 z "},"Ö":{"ha":1153,"x_min":68,"x_max":1085,"o":"m 68 780 l 237 949 l 916 949 l 1085 780 l 1085 170 l 916 0 l 237 0 l 68 170 l 68 780 m 271 814 l 203 746 l 203 203 l 271 136 l 882 136 l 949 203 l 949 746 l 882 814 l 271 814 m 509 1187 l 509 1051 l 373 1051 l 373 1187 l 509 1187 m 780 1187 l 780 1051 l 644 1051 l 644 1187 l 780 1187 z "},"×":{"ha":650,"x_min":68,"x_max":582,"o":"m 68 300 l 242 474 l 68 648 l 151 731 l 324 556 l 499 731 l 582 649 l 407 474 l 582 299 l 500 217 l 324 391 l 150 217 l 68 300 z "},"Ø":{"ha":1153,"x_min":68,"x_max":1085,"o":"m 68 780 l 237 949 l 916 949 l 1085 780 l 1085 170 l 916 0 l 237 0 l 68 170 l 68 780 m 949 746 l 305 136 l 882 136 l 949 203 l 949 746 m 203 203 l 848 814 l 271 814 l 203 746 l 203 203 z "},"Ù":{"ha":1153,"x_min":68,"x_max":1085,"o":"m 882 136 l 949 203 l 949 949 l 1085 949 l 1085 170 l 916 0 l 237 0 l 68 170 l 68 949 l 203 949 l 203 203 l 271 136 l 882 136 m 538 1255 l 667 1051 l 524 1051 l 395 1255 l 538 1255 z "},"Ú":{"ha":1153,"x_min":68,"x_max":1085,"o":"m 882 136 l 949 203 l 949 949 l 1085 949 l 1085 170 l 916 0 l 237 0 l 68 170 l 68 949 l 203 949 l 203 203 l 271 136 l 882 136 m 758 1255 l 629 1051 l 486 1051 l 615 1255 l 758 1255 z "},"Û":{"ha":1153,"x_min":68,"x_max":1085,"o":"m 882 136 l 949 203 l 949 949 l 1085 949 l 1085 170 l 916 0 l 237 0 l 68 170 l 68 949 l 203 949 l 203 203 l 271 136 l 882 136 m 665 1255 l 814 1051 l 658 1051 l 576 1187 l 495 1051 l 339 1051 l 488 1255 l 665 1255 z "},"Ü":{"ha":1153,"x_min":68,"x_max":1085,"o":"m 882 136 l 949 203 l 949 949 l 1085 949 l 1085 170 l 916 0 l 237 0 l 68 170 l 68 949 l 203 949 l 203 203 l 271 136 l 882 136 m 509 1187 l 509 1051 l 373 1051 l 373 1187 l 509 1187 m 780 1187 l 780 1051 l 644 1051 l 644 1187 l 780 1187 z "},"Ý":{"ha":1153,"x_min":68,"x_max":1085,"o":"m 68 949 l 203 949 l 203 624 l 543 488 l 610 488 l 949 624 l 949 949 l 1085 949 l 1085 543 l 644 353 l 644 0 l 509 0 l 509 353 l 68 543 l 68 949 m 758 1255 l 629 1051 l 486 1051 l 615 1255 l 758 1255 z "},"Þ":{"ha":1153,"x_min":68,"x_max":1085,"o":"m 203 949 l 203 780 l 916 780 l 1085 610 l 1085 339 l 916 170 l 271 170 l 271 305 l 882 305 l 949 373 l 949 576 l 882 644 l 203 644 l 203 0 l 68 0 l 68 949 l 203 949 z "},"ß":{"ha":1153,"x_min":68,"x_max":1085,"o":"m 271 0 l 271 136 l 882 136 l 949 203 l 949 339 l 882 407 l 271 407 l 271 543 l 861 543 l 929 610 l 929 746 l 861 814 l 271 814 l 203 746 l 203 0 l 68 0 l 68 780 l 237 949 l 895 949 l 1065 780 l 1065 576 l 973 485 l 1085 373 l 1085 170 l 916 0 l 271 0 z "},"à":{"ha":1017,"x_min":68,"x_max":949,"o":"m 68 170 l 68 271 l 237 441 l 746 441 l 746 305 l 271 305 l 203 237 l 203 203 l 271 136 l 746 136 l 814 203 l 814 543 l 746 610 l 136 610 l 203 746 l 780 746 l 949 576 l 949 170 l 780 0 l 237 0 l 68 170 m 470 1051 l 599 848 l 456 848 l 328 1051 l 470 1051 z "},"á":{"ha":1017,"x_min":68,"x_max":949,"o":"m 68 170 l 68 271 l 237 441 l 746 441 l 746 305 l 271 305 l 203 237 l 203 203 l 271 136 l 746 136 l 814 203 l 814 543 l 746 610 l 136 610 l 203 746 l 780 746 l 949 576 l 949 170 l 780 0 l 237 0 l 68 170 m 690 1051 l 561 848 l 418 848 l 547 1051 l 690 1051 z "},"â":{"ha":1017,"x_min":68,"x_max":949,"o":"m 68 170 l 68 271 l 237 441 l 746 441 l 746 305 l 271 305 l 203 237 l 203 203 l 271 136 l 746 136 l 814 203 l 814 543 l 746 610 l 136 610 l 203 746 l 780 746 l 949 576 l 949 170 l 780 0 l 237 0 l 68 170 m 597 1051 l 746 848 l 590 848 l 509 983 l 427 848 l 271 848 l 420 1051 l 597 1051 z "},"ã":{"ha":1017,"x_min":68,"x_max":949,"o":"m 68 170 l 68 271 l 237 441 l 746 441 l 746 305 l 271 305 l 203 237 l 203 203 l 271 136 l 746 136 l 814 203 l 814 543 l 746 610 l 136 610 l 203 746 l 780 746 l 949 576 l 949 170 l 780 0 l 237 0 l 68 170 m 180 949 l 315 1085 l 465 1085 l 587 963 l 668 963 l 722 1017 l 722 1085 l 838 1085 l 838 983 l 702 848 l 554 848 l 553 845 l 431 970 l 349 970 l 295 916 l 295 848 l 180 848 l 180 949 z "},"ä":{"ha":1017,"x_min":68,"x_max":949,"o":"m 68 170 l 68 271 l 237 441 l 746 441 l 746 305 l 271 305 l 203 237 l 203 203 l 271 136 l 746 136 l 814 203 l 814 543 l 746 610 l 136 610 l 203 746 l 780 746 l 949 576 l 949 170 l 780 0 l 237 0 l 68 170 m 441 983 l 441 848 l 305 848 l 305 983 l 441 983 m 712 983 l 712 848 l 576 848 l 576 983 l 712 983 z "},"å":{"ha":1017,"x_min":68,"x_max":949,"o":"m 68 170 l 68 271 l 237 441 l 746 441 l 746 305 l 271 305 l 203 237 l 203 203 l 271 136 l 746 136 l 814 203 l 814 543 l 746 610 l 136 610 l 203 746 l 780 746 l 949 576 l 949 170 l 780 0 l 237 0 l 68 170 m 593 1187 l 695 1085 l 695 949 l 593 848 l 424 848 l 322 949 l 322 1085 l 424 1187 l 593 1187 m 424 1051 l 424 983 l 458 949 l 559 949 l 593 983 l 593 1051 l 559 1085 l 458 1085 l 424 1051 z "},"æ":{"ha":1763,"x_min":68,"x_max":1695,"o":"m 68 170 l 68 271 l 237 441 l 746 441 l 746 305 l 271 305 l 203 237 l 203 203 l 271 136 l 746 136 l 814 203 l 814 543 l 746 610 l 136 610 l 203 746 l 780 746 l 882 644 l 983 746 l 1526 746 l 1695 576 l 1695 475 l 1526 305 l 1017 305 l 1017 441 l 1492 441 l 1560 509 l 1560 543 l 1492 610 l 1017 610 l 949 543 l 949 203 l 1017 136 l 1628 136 l 1560 0 l 983 0 l 882 102 l 780 0 l 237 0 l 68 170 z "},"ç":{"ha":1017,"x_min":68,"x_max":949,"o":"m 949 610 l 271 610 l 203 543 l 203 203 l 271 136 l 949 136 l 882 0 l 237 0 l 68 170 l 68 576 l 237 746 l 882 746 l 949 610 m 373 -305 l 502 -102 l 644 -102 l 515 -305 l 373 -305 z "},"è":{"ha":1017,"x_min":68,"x_max":949,"o":"m 68 576 l 237 746 l 780 746 l 949 576 l 949 475 l 780 305 l 271 305 l 271 441 l 746 441 l 814 509 l 814 543 l 746 610 l 271 610 l 203 543 l 203 203 l 271 136 l 882 136 l 814 0 l 237 0 l 68 170 l 68 576 m 470 1051 l 599 848 l 456 848 l 328 1051 l 470 1051 z "},"é":{"ha":1017,"x_min":68,"x_max":949,"o":"m 68 576 l 237 746 l 780 746 l 949 576 l 949 475 l 780 305 l 271 305 l 271 441 l 746 441 l 814 509 l 814 543 l 746 610 l 271 610 l 203 543 l 203 203 l 271 136 l 882 136 l 814 0 l 237 0 l 68 170 l 68 576 m 690 1051 l 561 848 l 418 848 l 547 1051 l 690 1051 z "},"ê":{"ha":1017,"x_min":68,"x_max":949,"o":"m 68 576 l 237 746 l 780 746 l 949 576 l 949 475 l 780 305 l 271 305 l 271 441 l 746 441 l 814 509 l 814 543 l 746 610 l 271 610 l 203 543 l 203 203 l 271 136 l 882 136 l 814 0 l 237 0 l 68 170 l 68 576 m 597 1051 l 746 848 l 590 848 l 509 983 l 427 848 l 271 848 l 420 1051 l 597 1051 z "},"ë":{"ha":1017,"x_min":68,"x_max":949,"o":"m 68 576 l 237 746 l 780 746 l 949 576 l 949 475 l 780 305 l 271 305 l 271 441 l 746 441 l 814 509 l 814 543 l 746 610 l 271 610 l 203 543 l 203 203 l 271 136 l 882 136 l 814 0 l 237 0 l 68 170 l 68 576 m 441 983 l 441 848 l 305 848 l 305 983 l 441 983 m 712 983 l 712 848 l 576 848 l 576 983 l 712 983 z "},"ì":{"ha":407,"x_min":68,"x_max":339,"o":"m 317 746 l 317 0 l 181 0 l 181 746 l 317 746 m 210 1051 l 339 848 l 197 848 l 68 1051 l 210 1051 z "},"í":{"ha":407,"x_min":68,"x_max":339,"o":"m 226 746 l 226 0 l 90 0 l 90 746 l 226 746 m 339 1051 l 210 848 l 68 848 l 197 1051 l 339 1051 z "},"î":{"ha":610,"x_min":68,"x_max":543,"o":"m 373 746 l 373 0 l 237 0 l 237 746 l 373 746 m 393 1051 l 543 848 l 387 848 l 305 983 l 224 848 l 68 848 l 217 1051 l 393 1051 z "},"ï":{"ha":543,"x_min":68,"x_max":475,"o":"m 339 746 l 339 0 l 203 0 l 203 746 l 339 746 m 203 983 l 203 848 l 68 848 l 68 983 l 203 983 m 475 983 l 475 848 l 339 848 l 339 983 l 475 983 z "},"ð":{"ha":1153,"x_min":68,"x_max":1085,"o":"m 68 170 l 68 441 l 237 610 l 746 610 l 746 475 l 271 475 l 203 407 l 203 203 l 271 136 l 746 136 l 814 203 l 814 746 l 407 746 l 407 848 l 814 848 l 814 949 l 949 949 l 949 848 l 1085 848 l 1085 746 l 949 746 l 949 170 l 780 0 l 237 0 l 68 170 z "},"ñ":{"ha":1017,"x_min":68,"x_max":949,"o":"m 203 543 l 203 0 l 68 0 l 68 576 l 237 746 l 780 746 l 949 576 l 949 0 l 814 0 l 814 543 l 746 610 l 271 610 l 203 543 m 180 949 l 315 1085 l 465 1085 l 587 963 l 668 963 l 722 1017 l 722 1085 l 838 1085 l 838 983 l 702 848 l 554 848 l 553 845 l 431 970 l 349 970 l 295 916 l 295 848 l 180 848 l 180 949 z "},"ò":{"ha":1017,"x_min":68,"x_max":949,"o":"m 949 576 l 949 170 l 780 0 l 237 0 l 68 170 l 68 576 l 237 746 l 780 746 l 949 576 m 203 543 l 203 203 l 271 136 l 746 136 l 814 203 l 814 543 l 746 610 l 271 610 l 203 543 m 470 1051 l 599 848 l 456 848 l 328 1051 l 470 1051 z "},"ó":{"ha":1017,"x_min":68,"x_max":949,"o":"m 949 576 l 949 170 l 780 0 l 237 0 l 68 170 l 68 576 l 237 746 l 780 746 l 949 576 m 203 543 l 203 203 l 271 136 l 746 136 l 814 203 l 814 543 l 746 610 l 271 610 l 203 543 m 690 1051 l 561 848 l 418 848 l 547 1051 l 690 1051 z "},"ô":{"ha":1017,"x_min":68,"x_max":949,"o":"m 949 576 l 949 170 l 780 0 l 237 0 l 68 170 l 68 576 l 237 746 l 780 746 l 949 576 m 203 543 l 203 203 l 271 136 l 746 136 l 814 203 l 814 543 l 746 610 l 271 610 l 203 543 m 597 1051 l 746 848 l 590 848 l 509 983 l 427 848 l 271 848 l 420 1051 l 597 1051 z "},"õ":{"ha":1017,"x_min":68,"x_max":949,"o":"m 949 576 l 949 170 l 780 0 l 237 0 l 68 170 l 68 576 l 237 746 l 780 746 l 949 576 m 203 543 l 203 203 l 271 136 l 746 136 l 814 203 l 814 543 l 746 610 l 271 610 l 203 543 m 180 949 l 315 1085 l 465 1085 l 587 963 l 668 963 l 722 1017 l 722 1085 l 838 1085 l 838 983 l 702 848 l 554 848 l 553 845 l 431 970 l 349 970 l 295 916 l 295 848 l 180 848 l 180 949 z "},"ö":{"ha":1017,"x_min":68,"x_max":949,"o":"m 949 576 l 949 170 l 780 0 l 237 0 l 68 170 l 68 576 l 237 746 l 780 746 l 949 576 m 203 543 l 203 203 l 271 136 l 746 136 l 814 203 l 814 543 l 746 610 l 271 610 l 203 543 m 441 983 l 441 848 l 305 848 l 305 983 l 441 983 m 712 983 l 712 848 l 576 848 l 576 983 l 712 983 z "},"÷":{"ha":746,"x_min":68,"x_max":678,"o":"m 68 543 l 678 543 l 678 407 l 68 407 l 68 543 m 441 237 l 441 102 l 305 102 l 305 237 l 441 237 m 441 848 l 441 712 l 305 712 l 305 848 l 441 848 z "},"ø":{"ha":1017,"x_min":68,"x_max":949,"o":"m 949 576 l 949 170 l 780 0 l 237 0 l 68 170 l 68 576 l 237 746 l 780 746 l 949 576 m 746 136 l 814 203 l 814 543 l 805 551 l 319 136 l 746 136 m 203 543 l 203 203 l 205 201 l 685 610 l 271 610 l 203 543 z "},"ù":{"ha":1017,"x_min":68,"x_max":949,"o":"m 68 170 l 68 746 l 203 746 l 203 203 l 271 136 l 746 136 l 814 203 l 814 746 l 949 746 l 949 170 l 780 0 l 237 0 l 68 170 m 470 1051 l 599 848 l 456 848 l 328 1051 l 470 1051 z "},"ú":{"ha":1017,"x_min":68,"x_max":949,"o":"m 68 170 l 68 746 l 203 746 l 203 203 l 271 136 l 746 136 l 814 203 l 814 746 l 949 746 l 949 170 l 780 0 l 237 0 l 68 170 m 690 1051 l 561 848 l 418 848 l 547 1051 l 690 1051 z "},"û":{"ha":1017,"x_min":68,"x_max":949,"o":"m 68 170 l 68 746 l 203 746 l 203 203 l 271 136 l 746 136 l 814 203 l 814 746 l 949 746 l 949 170 l 780 0 l 237 0 l 68 170 m 597 1051 l 746 848 l 590 848 l 509 983 l 427 848 l 271 848 l 420 1051 l 597 1051 z "},"ü":{"ha":1017,"x_min":68,"x_max":949,"o":"m 68 170 l 68 746 l 203 746 l 203 203 l 271 136 l 746 136 l 814 203 l 814 746 l 949 746 l 949 170 l 780 0 l 237 0 l 68 170 m 441 983 l 441 848 l 305 848 l 305 983 l 441 983 m 712 983 l 712 848 l 576 848 l 576 983 l 712 983 z "},"ý":{"ha":1017,"x_min":68,"x_max":949,"o":"m 949 170 l 780 0 l 203 0 l 136 136 l 746 136 l 814 203 l 814 305 l 237 305 l 68 475 l 68 746 l 203 746 l 203 509 l 271 441 l 814 441 l 814 746 l 949 746 l 949 170 m 690 1051 l 561 848 l 418 848 l 547 1051 l 690 1051 z "},"þ":{"ha":1017,"x_min":68,"x_max":949,"o":"m 68 949 l 203 949 l 203 746 l 780 746 l 949 576 l 949 373 l 780 203 l 271 203 l 271 339 l 746 339 l 814 407 l 814 543 l 746 610 l 203 610 l 203 0 l 68 0 l 68 949 z "},"ÿ":{"ha":1017,"x_min":68,"x_max":949,"o":"m 949 170 l 780 0 l 203 0 l 136 136 l 746 136 l 814 203 l 814 305 l 237 305 l 68 475 l 68 746 l 203 746 l 203 509 l 271 441 l 814 441 l 814 746 l 949 746 l 949 170 m 441 983 l 441 848 l 305 848 l 305 983 l 441 983 m 712 983 l 712 848 l 576 848 l 576 983 l 712 983 z "},"Č":{"ha":1153,"x_min":68,"x_max":1085,"o":"m 203 203 l 271 136 l 1085 136 l 1017 0 l 237 0 l 68 170 l 68 780 l 237 949 l 1017 949 l 1085 814 l 271 814 l 203 746 l 203 203 m 488 1051 l 339 1255 l 495 1255 l 576 1119 l 658 1255 l 814 1255 l 665 1051 l 488 1051 z "},"č":{"ha":1017,"x_min":68,"x_max":949,"o":"m 949 610 l 271 610 l 203 543 l 203 203 l 271 136 l 949 136 l 882 0 l 237 0 l 68 170 l 68 576 l 237 746 l 882 746 l 949 610 m 420 848 l 271 1051 l 427 1051 l 509 916 l 590 1051 l 746 1051 l 597 848 l 420 848 z "},"Ď":{"ha":1153,"x_min":68,"x_max":1085,"o":"m 68 949 l 916 949 l 1085 780 l 1085 170 l 916 0 l 68 0 l 68 949 m 203 814 l 203 136 l 882 136 l 949 203 l 949 746 l 882 814 l 203 814 m 488 1051 l 339 1255 l 495 1255 l 576 1119 l 658 1255 l 814 1255 l 665 1051 l 488 1051 z "},"ď":{"ha":1289,"x_min":68,"x_max":1221,"o":"m 68 170 l 68 576 l 237 746 l 746 746 l 746 610 l 271 610 l 203 543 l 203 203 l 271 136 l 746 136 l 814 203 l 814 949 l 949 949 l 949 170 l 780 0 l 237 0 l 68 170 m 1221 949 l 1221 644 l 1085 610 l 1085 949 l 1221 949 z "},"Ě":{"ha":1153,"x_min":68,"x_max":1085,"o":"m 1085 543 l 1085 407 l 203 407 l 203 203 l 271 136 l 1085 136 l 1017 0 l 237 0 l 68 170 l 68 780 l 237 949 l 1017 949 l 1085 814 l 271 814 l 203 746 l 203 543 l 1085 543 m 488 1051 l 339 1255 l 495 1255 l 576 1119 l 658 1255 l 814 1255 l 665 1051 l 488 1051 z "},"ě":{"ha":1017,"x_min":68,"x_max":949,"o":"m 68 576 l 237 746 l 780 746 l 949 576 l 949 475 l 780 305 l 271 305 l 271 441 l 746 441 l 814 509 l 814 543 l 746 610 l 271 610 l 203 543 l 203 203 l 271 136 l 882 136 l 814 0 l 237 0 l 68 170 l 68 576 m 420 848 l 271 1051 l 427 1051 l 509 916 l 590 1051 l 746 1051 l 597 848 l 420 848 z "},"ı":{"ha":271,"x_min":68,"x_max":203,"o":"m 203 746 l 203 0 l 68 0 l 68 746 l 203 746 z "},"Ň":{"ha":1153,"x_min":68,"x_max":1085,"o":"m 271 814 l 203 746 l 203 0 l 68 0 l 68 780 l 237 949 l 916 949 l 1085 780 l 1085 0 l 949 0 l 949 746 l 882 814 l 271 814 m 488 1051 l 339 1255 l 495 1255 l 576 1119 l 658 1255 l 814 1255 l 665 1051 l 488 1051 z "},"ň":{"ha":1017,"x_min":68,"x_max":949,"o":"m 203 543 l 203 0 l 68 0 l 68 576 l 237 746 l 780 746 l 949 576 l 949 0 l 814 0 l 814 543 l 746 610 l 271 610 l 203 543 m 420 848 l 271 1051 l 427 1051 l 509 916 l 590 1051 l 746 1051 l 597 848 l 420 848 z "},"Œ":{"ha":2035,"x_min":68,"x_max":1967,"o":"m 68 780 l 237 949 l 916 949 l 1017 848 l 1119 949 l 1899 949 l 1967 814 l 1153 814 l 1085 746 l 1085 543 l 1967 543 l 1967 407 l 1085 407 l 1085 203 l 1153 136 l 1967 136 l 1899 0 l 1119 0 l 1017 102 l 916 0 l 237 0 l 68 170 l 68 780 m 271 814 l 203 746 l 203 203 l 271 136 l 882 136 l 949 203 l 949 746 l 882 814 l 271 814 z "},"œ":{"ha":1763,"x_min":68,"x_max":1695,"o":"m 882 644 l 983 746 l 1526 746 l 1695 576 l 1695 475 l 1526 305 l 1017 305 l 1017 441 l 1492 441 l 1560 509 l 1560 543 l 1492 610 l 1017 610 l 949 543 l 949 203 l 1017 136 l 1628 136 l 1560 0 l 983 0 l 882 102 l 780 0 l 237 0 l 68 170 l 68 576 l 237 746 l 780 746 l 882 644 m 203 543 l 203 203 l 271 136 l 746 136 l 814 203 l 814 543 l 746 610 l 271 610 l 203 543 z "},"Ř":{"ha":1153,"x_min":68,"x_max":1085,"o":"m 916 949 l 1085 780 l 1085 509 l 983 407 l 1085 305 l 1085 0 l 949 0 l 949 271 l 882 339 l 271 339 l 271 475 l 882 475 l 949 543 l 949 746 l 882 814 l 203 814 l 203 0 l 68 0 l 68 949 l 916 949 m 488 1051 l 339 1255 l 495 1255 l 576 1119 l 658 1255 l 814 1255 l 665 1051 l 488 1051 z "},"ř":{"ha":814,"x_min":68,"x_max":746,"o":"m 746 610 l 271 610 l 203 543 l 203 0 l 68 0 l 68 576 l 237 746 l 678 746 l 746 610 m 319 848 l 170 1051 l 326 1051 l 407 916 l 488 1051 l 644 1051 l 495 848 l 319 848 z "},"Š":{"ha":1153,"x_min":68,"x_max":1085,"o":"m 136 0 l 68 136 l 882 136 l 949 203 l 949 339 l 882 407 l 237 407 l 68 576 l 68 780 l 237 949 l 1017 949 l 1085 814 l 271 814 l 203 746 l 203 610 l 271 543 l 916 543 l 1085 373 l 1085 170 l 916 0 l 136 0 m 488 1051 l 339 1255 l 495 1255 l 576 1119 l 658 1255 l 814 1255 l 665 1051 l 488 1051 z "},"š":{"ha":1017,"x_min":68,"x_max":949,"o":"m 780 441 l 949 271 l 949 170 l 780 0 l 136 0 l 68 136 l 746 136 l 814 203 l 814 237 l 746 305 l 237 305 l 68 475 l 68 576 l 237 746 l 882 746 l 949 610 l 271 610 l 203 543 l 203 509 l 271 441 l 780 441 m 420 848 l 271 1051 l 427 1051 l 509 916 l 590 1051 l 746 1051 l 597 848 l 420 848 z "},"Ť":{"ha":1153,"x_min":68,"x_max":1085,"o":"m 1085 949 l 1085 814 l 644 814 l 644 0 l 509 0 l 509 814 l 68 814 l 68 949 l 1085 949 m 488 1051 l 339 1255 l 495 1255 l 576 1119 l 658 1255 l 814 1255 l 665 1051 l 488 1051 z "},"ť":{"ha":1085,"x_min":68,"x_max":1017,"o":"m 203 746 l 203 882 l 339 949 l 339 746 l 746 746 l 746 610 l 339 610 l 339 203 l 407 136 l 746 136 l 678 0 l 373 0 l 203 170 l 203 610 l 68 610 l 68 746 l 203 746 m 1017 949 l 1017 644 l 882 610 l 882 949 l 1017 949 z "},"Ů":{"ha":1153,"x_min":68,"x_max":1085,"o":"m 882 136 l 949 203 l 949 949 l 1085 949 l 1085 170 l 916 0 l 237 0 l 68 170 l 68 949 l 203 949 l 203 203 l 271 136 l 882 136 m 661 1390 l 763 1289 l 763 1153 l 661 1051 l 492 1051 l 390 1153 l 390 1289 l 492 1390 l 661 1390 m 492 1255 l 492 1187 l 526 1153 l 627 1153 l 661 1187 l 661 1255 l 627 1289 l 526 1289 l 492 1255 z "},"ů":{"ha":1017,"x_min":68,"x_max":949,"o":"m 68 170 l 68 746 l 203 746 l 203 203 l 271 136 l 746 136 l 814 203 l 814 746 l 949 746 l 949 170 l 780 0 l 237 0 l 68 170 m 593 1187 l 695 1085 l 695 949 l 593 848 l 424 848 l 322 949 l 322 1085 l 424 1187 l 593 1187 m 424 1051 l 424 983 l 458 949 l 559 949 l 593 983 l 593 1051 l 559 1085 l 458 1085 l 424 1051 z "},"Ÿ":{"ha":1153,"x_min":68,"x_max":1085,"o":"m 68 949 l 203 949 l 203 624 l 543 488 l 610 488 l 949 624 l 949 949 l 1085 949 l 1085 543 l 644 353 l 644 0 l 509 0 l 509 353 l 68 543 l 68 949 m 509 1187 l 509 1051 l 373 1051 l 373 1187 l 509 1187 m 780 1187 l 780 1051 l 644 1051 l 644 1187 l 780 1187 z "},"Ž":{"ha":1153,"x_min":68,"x_max":1085,"o":"m 68 0 l 68 136 l 882 814 l 68 814 l 68 949 l 1085 949 l 1085 814 l 271 136 l 1085 136 l 1085 0 l 68 0 m 488 1051 l 339 1255 l 495 1255 l 576 1119 l 658 1255 l 814 1255 l 665 1051 l 488 1051 z "},"ž":{"ha":1017,"x_min":68,"x_max":949,"o":"m 68 0 l 68 136 l 726 610 l 68 610 l 68 746 l 949 746 l 949 610 l 292 136 l 949 136 l 949 0 l 68 0 m 420 848 l 271 1051 l 427 1051 l 509 916 l 590 1051 l 746 1051 l 597 848 l 420 848 z "},"ƒ":{"ha":949,"x_min":68,"x_max":882,"o":"m 68 136 l 271 136 l 339 203 l 339 543 l 203 543 l 203 678 l 339 678 l 339 780 l 509 949 l 814 949 l 882 814 l 543 814 l 475 746 l 475 678 l 882 678 l 882 543 l 475 543 l 475 170 l 305 0 l 136 0 l 68 136 z "},"ˆ":{"ha":610,"x_min":68,"x_max":543,"o":"m 393 1051 l 543 848 l 387 848 l 305 983 l 224 848 l 68 848 l 217 1051 l 393 1051 z "},"ˇ":{"ha":610,"x_min":68,"x_max":543,"o":"m 217 848 l 68 1051 l 224 1051 l 305 916 l 387 1051 l 543 1051 l 393 848 l 217 848 z "},"˘":{"ha":509,"x_min":68,"x_max":441,"o":"m 68 1085 l 170 1085 l 170 983 l 203 949 l 305 949 l 339 983 l 339 1085 l 441 1085 l 441 949 l 339 848 l 170 848 l 68 949 l 68 1085 z "},"˙":{"ha":271,"x_min":68,"x_max":203,"o":"m 203 983 l 203 848 l 68 848 l 68 983 l 203 983 z "},"˚":{"ha":509,"x_min":68,"x_max":441,"o":"m 339 1187 l 441 1085 l 441 949 l 339 848 l 170 848 l 68 949 l 68 1085 l 170 1187 l 339 1187 m 170 1051 l 170 983 l 203 949 l 305 949 l 339 983 l 339 1051 l 305 1085 l 203 1085 l 170 1051 z "},"˛":{"ha":407,"x_min":68,"x_max":339,"o":"m 197 -305 l 68 -102 l 210 -102 l 339 -305 l 197 -305 z "},"˜":{"ha":793,"x_min":68,"x_max":726,"o":"m 68 949 l 203 1085 l 353 1085 l 475 963 l 556 963 l 610 1017 l 610 1085 l 726 1085 l 726 983 l 590 848 l 442 848 l 441 845 l 319 970 l 237 970 l 183 916 l 183 848 l 68 848 l 68 949 z "},"˝":{"ha":678,"x_min":68,"x_max":610,"o":"m 339 1051 l 210 848 l 68 848 l 197 1051 l 339 1051 m 610 1051 l 481 848 l 339 848 l 468 1051 l 610 1051 z "},"–":{"ha":746,"x_min":68,"x_max":678,"o":"m 68 543 l 678 543 l 678 407 l 68 407 l 68 543 z "},"—":{"ha":1017,"x_min":68,"x_max":949,"o":"m 68 543 l 949 543 l 949 407 l 68 407 l 68 543 z "},"‘":{"ha":271,"x_min":68,"x_max":203,"o":"m 203 949 l 203 610 l 68 644 l 68 949 l 203 949 z "},"’":{"ha":271,"x_min":68,"x_max":203,"o":"m 203 949 l 203 644 l 68 610 l 68 949 l 203 949 z "},"‚":{"ha":271,"x_min":68,"x_max":203,"o":"m 203 136 l 203 -170 l 68 -203 l 68 136 l 203 136 z "},"“":{"ha":543,"x_min":68,"x_max":475,"o":"m 475 949 l 475 610 l 339 644 l 339 949 l 475 949 m 203 949 l 203 610 l 68 644 l 68 949 l 203 949 z "},"”":{"ha":543,"x_min":68,"x_max":475,"o":"m 203 949 l 203 644 l 68 610 l 68 949 l 203 949 m 475 949 l 475 644 l 339 610 l 339 949 l 475 949 z "},"„":{"ha":543,"x_min":68,"x_max":475,"o":"m 203 136 l 203 -170 l 68 -203 l 68 136 l 203 136 m 475 136 l 475 -170 l 339 -203 l 339 136 l 475 136 z "},"†":{"ha":746,"x_min":68,"x_max":678,"o":"m 441 949 l 441 746 l 678 746 l 678 610 l 441 610 l 441 0 l 305 0 l 305 610 l 68 610 l 68 746 l 305 746 l 305 949 l 441 949 z "},"‡":{"ha":746,"x_min":68,"x_max":678,"o":"m 441 949 l 441 746 l 678 746 l 678 610 l 441 610 l 441 339 l 678 339 l 678 203 l 441 203 l 441 0 l 305 0 l 305 203 l 68 203 l 68 339 l 305 339 l 305 610 l 68 610 l 68 746 l 305 746 l 305 949 l 441 949 z "},"•":{"ha":407,"x_min":68,"x_max":339,"o":"m 68 339 l 68 610 l 339 610 l 339 339 l 68 339 z "},"…":{"ha":814,"x_min":68,"x_max":746,"o":"m 203 136 l 203 0 l 68 0 l 68 136 l 203 136 m 475 136 l 475 0 l 339 0 l 339 136 l 475 136 m 746 136 l 746 0 l 610 0 l 610 136 l 746 136 z "},"‰":{"ha":2035,"x_min":68,"x_max":1967,"o":"m 1424 373 l 1594 543 l 1797 543 l 1967 373 l 1967 170 l 1797 0 l 1594 0 l 1424 170 l 1424 373 m 983 543 l 1187 543 l 1356 373 l 1356 170 l 1187 0 l 983 0 l 814 170 l 814 373 l 983 543 m 237 949 l 441 949 l 610 780 l 610 576 l 441 407 l 237 407 l 68 576 l 68 780 l 237 949 m 203 0 l 1051 949 l 1221 949 l 373 0 l 203 0 m 1628 407 l 1560 339 l 1560 203 l 1628 136 l 1763 136 l 1831 203 l 1831 339 l 1763 407 l 1628 407 m 271 814 l 203 746 l 203 610 l 271 543 l 407 543 l 475 610 l 475 746 l 407 814 l 271 814 m 1017 407 l 949 339 l 949 203 l 1017 136 l 1153 136 l 1221 203 l 1221 339 l 1153 407 l 1017 407 z "},"‹":{"ha":407,"x_min":68,"x_max":339,"o":"m 339 814 l 339 644 l 170 475 l 339 305 l 339 136 l 68 407 l 68 543 l 339 814 z "},"›":{"ha":407,"x_min":68,"x_max":339,"o":"m 339 543 l 339 407 l 68 136 l 68 305 l 237 475 l 68 644 l 68 814 l 339 543 z "},"€":{"ha":1153,"x_min":68,"x_max":1085,"o":"m 203 678 l 203 780 l 373 949 l 1017 949 l 1085 814 l 407 814 l 339 746 l 339 678 l 880 678 l 836 543 l 339 543 l 339 407 l 791 407 l 747 271 l 339 271 l 339 203 l 407 136 l 1085 136 l 1017 0 l 373 0 l 203 170 l 203 271 l 68 271 l 68 407 l 203 407 l 203 543 l 68 543 l 68 678 l 203 678 z "},"™":{"ha":1390,"x_min":68,"x_max":1322,"o":"m 960 475 l 960 834 l 861 834 l 827 800 l 827 475 l 712 475 l 712 848 l 814 949 l 1221 949 l 1322 848 l 1322 475 l 1214 475 l 1214 793 l 1173 834 l 1075 834 l 1075 475 l 960 475 m 281 475 l 281 827 l 68 827 l 68 949 l 610 949 l 610 827 l 397 827 l 397 475 l 281 475 z "}}}
